<?xml version="1.0" standalone="no"?>
<!DOCTYPE svg PUBLIC "-//W3C//DTD SVG 20010904//EN"
 "http://www.w3.org/TR/2001/REC-SVG-20010904/DTD/svg10.dtd">
<svg version="1.0" xmlns="http://www.w3.org/2000/svg"
 width="720.000000pt" height="348.000000pt" viewBox="0 0 720.000000 348.000000"
 preserveAspectRatio="xMidYMid meet">

<g transform="translate(0.000000,348.000000) scale(0.100000,-0.100000)"
fill="#FFDEADFF" stroke="none">
<path d="M550 3308 c-1 -2 -124 -698 -274 -1548 l-272 -1545 144 -3 c80 -1
147 -1 149 2 3 3 353 1969 353 1983 0 2 179 4 397 5 l397 3 26 148 26 147
-397 0 -397 0 13 68 c7 37 27 151 45 254 l33 188 531 2 530 3 22 125 c13 69
23 135 23 148 l1 22 -675 0 c-371 0 -675 -1 -675 -2z"/>
<path d="M6330 3278 c-1 -2 -124 -698 -274 -1548 l-272 -1545 674 -3 c372 -1
677 -1 679 1 3 4 53 274 53 289 0 4 -238 9 -528 10 l-528 3 241 1370 c133 754
244 1382 247 1398 l5 27 -148 0 c-82 0 -149 -1 -149 -2z"/>
<path d="M4805 2391 c-6 -4 -50 -25 -100 -46 -49 -21 -94 -41 -98 -45 -10 -9
200 -163 213 -155 4 3 11 40 14 83 4 42 9 98 12 125 4 41 2 47 -14 47 -10 0
-22 -4 -27 -9z"/>
<path d="M4896 2378 c-19 -57 -34 -248 -21 -248 3 0 19 10 36 23 17 12 63 33
102 47 40 14 73 32 75 40 1 9 -17 26 -46 42 -26 15 -69 45 -95 68 -32 28 -48
37 -51 28z"/>
<path d="M2955 2349 c-214 -54 -373 -119 -446 -183 -19 -17 -63 -53 -97 -81
-157 -126 -310 -364 -352 -547 -7 -29 -17 -66 -22 -83 -16 -51 -21 -264 -8
-350 6 -44 15 -105 20 -135 11 -77 23 -111 80 -225 84 -168 169 -273 310 -384
77 -60 199 -141 214 -141 3 0 36 -14 73 -31 195 -89 459 -106 700 -45 100 25
173 50 173 59 0 3 -39 44 -86 92 -82 85 -86 87 -112 75 -35 -16 -184 -40 -249
-40 -133 0 -334 52 -443 115 -115 67 -222 161 -297 260 -44 59 -119 228 -142
320 -23 97 -32 167 -23 181 4 6 79 43 167 82 88 39 203 91 255 115 52 25 120
56 150 70 30 14 199 91 375 172 176 81 361 165 410 187 50 22 94 44 100 49 33
31 89 -7 172 -116 40 -52 117 -224 145 -323 33 -114 32 -323 -1 -442 -46 -165
-128 -299 -251 -412 -38 -36 -70 -71 -70 -76 0 -20 139 -132 164 -132 52 0
233 226 301 374 80 176 99 265 99 461 1 304 -43 443 -221 697 -132 190 -374
352 -623 418 -69 18 -117 23 -255 26 -93 1 -188 -2 -210 -7z m288 -241 c65
-14 199 -76 205 -95 2 -7 -18 -22 -45 -34 -26 -11 -110 -50 -185 -85 -76 -35
-140 -64 -142 -64 -2 0 -51 -22 -108 -49 -56 -27 -128 -60 -158 -74 -30 -14
-145 -66 -254 -116 -202 -93 -234 -100 -208 -49 6 13 21 48 33 78 26 68 115
203 166 251 54 52 170 137 223 164 145 74 331 102 473 73z"/>
<path d="M4577 2252 c-3 -4 -1 -30 3 -57 5 -28 14 -104 20 -170 6 -66 16 -147
21 -181 5 -33 9 -90 9 -125 0 -63 12 -101 26 -86 4 4 17 38 30 75 12 37 43
126 69 197 64 177 65 184 16 217 -22 15 -73 52 -115 82 -41 31 -77 53 -79 48z"/>
<path d="M5087 2193 c-4 -4 -51 -26 -104 -48 -53 -23 -98 -46 -100 -51 -1 -5
21 -25 50 -44 29 -19 74 -52 100 -72 27 -21 52 -38 57 -38 6 0 35 221 32 247
-1 11 -26 15 -35 6z"/>
<path d="M5166 2178 c-7 -22 -27 -240 -23 -245 11 -10 189 88 195 107 3 7 -2
18 -10 24 -8 6 -43 36 -78 66 -71 63 -78 67 -84 48z"/>
<path d="M4846 2038 c-2 -7 -29 -88 -59 -181 -30 -92 -51 -169 -47 -172 10 -6
330 201 330 214 0 4 -19 21 -42 36 -24 15 -69 48 -101 72 -60 45 -75 51 -81
31z"/>
<path d="M5306 1969 c-58 -23 -136 -68 -136 -78 0 -21 189 -156 201 -144 5 5
10 60 11 123 3 131 4 130 -76 99z"/>
<path d="M4115 1910 c-3 -5 7 -29 23 -52 16 -24 39 -62 51 -85 12 -24 25 -43
29 -43 153 -10 207 -19 275 -48 22 -9 41 -12 46 -6 13 14 -12 181 -29 198 -34
33 -378 64 -395 36z"/>
<path d="M4930 1734 c-102 -75 -191 -139 -197 -141 -14 -6 -18 -33 -5 -33 5 0
31 6 58 14 27 8 96 24 154 36 58 12 132 30 165 40 33 9 95 25 137 35 43 9 80
20 83 25 3 4 -23 27 -57 51 -35 23 -80 57 -101 75 -20 19 -40 34 -45 34 -4 0
-90 -61 -192 -136z"/>
<path d="M3699 1758 c-35 -24 -100 -79 -144 -123 -63 -62 -91 -100 -127 -171
-48 -93 -92 -202 -108 -264 -4 -19 -15 -61 -24 -93 -41 -150 -3 -353 105 -567
66 -131 114 -192 214 -276 92 -78 118 -95 201 -137 140 -70 248 -92 439 -91
142 1 155 3 245 33 131 45 210 85 299 151 91 67 203 187 244 262 33 60 102
236 123 316 27 102 12 329 -30 453 -23 68 -113 254 -129 268 -12 9 -31 8 -88
-4 -41 -9 -84 -18 -96 -21 -29 -6 -29 -25 -2 -50 24 -21 85 -113 102 -153 12
-29 29 -98 53 -211 34 -158 -16 -382 -115 -522 -78 -110 -252 -253 -356 -291
-115 -42 -351 -56 -448 -27 -82 25 -173 61 -210 84 -96 59 -223 189 -280 286
-40 70 -86 263 -87 367 -1 255 132 494 349 628 34 21 61 42 61 47 0 11 -55 94
-83 126 -11 12 -26 22 -32 22 -7 0 -41 -19 -76 -42z"/>
</g>
</svg>
