<?xml version="1.0" standalone="no"?>
<!DOCTYPE svg PUBLIC "-//W3C//DTD SVG 20010904//EN"
 "http://www.w3.org/TR/2001/REC-SVG-20010904/DTD/svg10.dtd">
<svg version="1.0" xmlns="http://www.w3.org/2000/svg"
 width="512.000000pt" height="512.000000pt" viewBox="0 0 512.000000 512.000000"
 preserveAspectRatio="xMidYMid meet">

<g transform="translate(0.000000,512.000000) scale(0.100000,-0.100000)"
fill="#FFDEADFF" stroke="none">
<path d="M2384 5074 c-44 -7 -114 -25 -155 -40 -336 -120 -574 -377 -666 -722
-23 -85 -26 -116 -26 -252 0 -135 3 -168 26 -254 98 -367 377 -645 746 -743
83 -23 116 -26 251 -26 135 0 168 3 252 26 369 98 647 376 745 743 23 86 26
119 26 254 0 136 -3 167 -26 252 -141 527 -641 852 -1173 762z m565 -669 c53
-27 81 -71 81 -126 0 -28 -6 -62 -14 -77 -8 -15 -126 -138 -263 -274 -212
-211 -253 -247 -285 -253 -79 -15 -103 -2 -229 122 -122 119 -149 158 -149
213 0 50 38 107 85 130 73 35 124 21 208 -59 l53 -50 175 175 c95 97 188 185
204 195 36 23 95 25 134 4z"/>
<path d="M1121 3517 c-107 -39 -189 -73 -182 -75 7 -2 141 -51 298 -108 158
-57 288 -103 289 -101 1 1 -27 45 -62 97 -35 52 -80 132 -101 178 -20 45 -40
82 -43 81 -3 0 -92 -33 -199 -72z"/>
<path d="M3757 3508 c-21 -46 -66 -126 -101 -178 -35 -52 -63 -96 -62 -98 2
-1 136 46 299 105 163 59 293 110 289 114 -8 6 -373 140 -382 139 -3 0 -23
-37 -43 -82z"/>
<path d="M569 3215 c-34 -18 -23 -1 -312 -505 -137 -239 -251 -449 -254 -466
-8 -46 14 -101 50 -128 33 -24 1780 -706 1829 -714 39 -6 94 15 120 47 13 15
142 242 288 504 146 262 267 477 270 477 3 0 124 -215 270 -477 146 -262 274
-487 284 -501 22 -28 73 -52 110 -52 37 0 1827 698 1853 722 29 27 47 81 40
122 -4 25 -452 823 -522 929 -23 36 -64 57 -111 57 -23 0 -380 -124 -975 -340
-517 -187 -943 -340 -948 -340 -9 0 -1811 650 -1859 670 -33 14 -103 12 -133
-5z"/>
<path d="M4095 1419 c-738 -289 -767 -300 -843 -306 -123 -10 -258 42 -342
133 -21 22 -71 97 -111 165 l-74 124 -3 -749 c-1 -412 -1 -751 1 -752 4 -5
1772 632 1817 654 19 9 45 32 57 51 23 34 23 34 23 457 0 233 -3 424 -7 423
-5 -1 -237 -91 -518 -200z"/>
<path d="M530 1199 c0 -449 1 -457 59 -498 14 -10 432 -164 929 -343 l902
-325 0 769 c0 422 -2 768 -3 768 -2 0 -39 -61 -83 -137 -43 -75 -98 -157 -120
-182 -104 -115 -268 -165 -415 -127 -31 8 -301 110 -600 226 -299 117 -572
223 -606 236 l-63 23 0 -410z"/>
</g>
</svg>
