<?xml version="1.0" standalone="no"?>
<!DOCTYPE svg PUBLIC "-//W3C//DTD SVG 20010904//EN"
 "http://www.w3.org/TR/2001/REC-SVG-20010904/DTD/svg10.dtd">
<svg version="1.0" xmlns="http://www.w3.org/2000/svg"
 width="512.000000pt" height="512.000000pt" viewBox="0 0 512.000000 512.000000"
 preserveAspectRatio="xMidYMid meet">

<g transform="translate(0.000000,512.000000) scale(0.100000,-0.100000)"
fill="#FFDEADFF" stroke="none">
<path d="M1720 4806 c-214 -75 -544 -265 -665 -383 -91 -88 -110 -203 -60
-353 39 -114 42 -277 8 -385 -74 -232 -269 -397 -513 -434 -128 -20 -210 -73
-259 -169 -45 -88 -77 -380 -67 -612 12 -286 39 -386 124 -461 51 -45 94 -61
217 -84 137 -25 222 -70 325 -174 132 -134 184 -260 183 -446 0 -90 -4 -111
-39 -210 -85 -244 -40 -333 276 -543 107 -71 319 -181 438 -227 122 -47 193
-48 281 -4 39 20 75 47 99 77 116 143 195 203 329 248 247 84 514 4 685 -204
96 -116 215 -158 340 -118 98 32 315 145 450 235 171 114 258 194 287 261 37
86 37 132 1 240 -40 120 -51 268 -26 372 54 231 230 409 461 464 165 40 172
43 229 95 39 36 61 65 75 104 76 204 74 790 -3 961 -26 56 -79 115 -127 140
-17 8 -62 22 -100 30 -265 55 -451 226 -514 474 -24 91 -16 262 15 345 31 84
32 183 2 250 -29 62 -54 90 -165 176 -220 171 -563 345 -703 356 -105 9 -148
-12 -279 -136 -85 -82 -131 -116 -188 -144 -178 -88 -373 -88 -554 0 -61 30
-101 60 -189 144 -85 81 -122 110 -159 123 -67 22 -138 20 -215 -8z m1030
-1470 c208 -56 368 -170 480 -343 240 -366 133 -862 -237 -1103 -136 -89 -259
-125 -433 -125 -226 0 -408 75 -564 231 -156 156 -231 338 -231 564 0 174 36
297 125 433 120 185 307 310 525 353 85 16 257 12 335 -10z"/>
</g>
</svg>
