<?xml version="1.0" standalone="no"?>
<!DOCTYPE svg PUBLIC "-//W3C//DTD SVG 20010904//EN"
 "http://www.w3.org/TR/2001/REC-SVG-20010904/DTD/svg10.dtd">
<svg version="1.0" xmlns="http://www.w3.org/2000/svg"
 width="512.000000pt" height="512.000000pt" viewBox="0 0 512.000000 512.000000"
 preserveAspectRatio="xMidYMid meet">

<g transform="translate(0.000000,512.000000) scale(0.100000,-0.100000)"
fill="#000000" stroke="none">
<path d="M3451 4991 c-154 -39 -309 -141 -407 -267 -43 -55 -124 -207 -124
-232 0 -9 -327 -12 -1372 -12 l-1373 0 -50 -24 c-59 -27 -77 -46 -104 -106
-37 -81 -20 -169 45 -234 66 -65 -41 -61 1475 -64 l1376 -2 18 -48 c85 -230
303 -416 547 -466 342 -70 699 123 830 450 l24 59 310 5 c334 6 347 8 407 64
37 34 67 101 67 151 0 44 -36 131 -66 157 -11 9 -40 26 -64 37 -42 19 -65 21
-348 21 l-302 0 -11 28 c-35 85 -87 178 -134 235 -88 107 -227 199 -367 242
-83 26 -285 29 -377 6z m304 -436 c135 -59 210 -200 183 -345 -13 -71 -37
-116 -88 -167 -67 -68 -119 -88 -225 -88 -75 0 -98 4 -135 24 -61 32 -116 86
-148 146 -23 43 -27 62 -27 140 0 106 20 158 88 225 50 51 86 70 157 86 69 15
130 8 195 -21z"/>
<path d="M1400 3300 c-245 -34 -459 -188 -564 -405 -24 -49 -46 -98 -50 -107
-5 -17 -29 -18 -313 -18 -346 0 -358 -3 -420 -73 -69 -79 -69 -195 0 -274 62
-70 74 -73 420 -73 284 0 308 -1 313 -17 4 -10 26 -59 50 -108 92 -190 270
-334 485 -391 77 -20 239 -23 324 -5 235 50 437 221 536 455 l25 61 1385 5
c1542 6 1411 -1 1477 74 68 78 68 194 0 272 -66 75 65 68 -1477 74 l-1385 5
-25 61 c-80 188 -217 329 -400 410 -106 47 -269 70 -381 54z m176 -434 c62
-16 133 -63 169 -111 85 -111 85 -279 0 -391 -37 -48 -119 -100 -184 -114
-258 -59 -472 218 -350 455 70 136 217 201 365 161z"/>
<path d="M3475 1583 c-238 -50 -457 -238 -540 -465 l-18 -48 -1376 -2 c-1516
-3 -1409 1 -1475 -64 -65 -65 -82 -153 -45 -234 27 -60 45 -79 104 -106 l50
-24 1373 0 c1045 0 1372 -3 1372 -12 0 -25 81 -177 124 -232 102 -131 269
-237 430 -272 95 -20 271 -15 354 11 139 43 278 135 367 242 47 57 99 150 134
236 l11 27 302 0 c297 0 304 1 353 24 59 27 77 46 104 106 48 106 0 228 -109
279 -29 13 -89 17 -344 21 l-310 5 -24 59 c-131 328 -494 522 -837 449z m287
-441 c55 -27 122 -91 148 -142 43 -84 43 -205 1 -289 -80 -156 -276 -220 -431
-141 -51 26 -115 93 -142 148 -33 68 -33 207 1 272 42 81 115 143 201 171 49
16 172 5 222 -19z"/>
</g>
</svg>
