<?xml version="1.0" standalone="no"?>
<!DOCTYPE svg PUBLIC "-//W3C//DTD SVG 20010904//EN"
 "http://www.w3.org/TR/2001/REC-SVG-20010904/DTD/svg10.dtd">
<svg version="1.0" xmlns="http://www.w3.org/2000/svg"
 width="512.000000pt" height="512.000000pt" viewBox="0 0 512.000000 512.000000"
 preserveAspectRatio="xMidYMid meet">

<g transform="translate(0.000000,512.000000) scale(0.100000,-0.100000)"
fill="#FFDEADFF" stroke="none">
<path d="M3285 4704 c-195 -43 -362 -133 -500 -269 -129 -126 -199 -235 -254
-395 l-26 -75 -1171 -5 c-1123 -5 -1171 -6 -1199 -24 -82 -51 -123 -115 -132
-202 -10 -99 52 -204 147 -248 45 -21 52 -21 1201 -24 l1156 -2 23 -68 c51
-151 141 -292 258 -404 128 -122 273 -204 442 -250 73 -20 108 -23 255 -23
147 0 182 3 255 23 292 80 533 282 660 555 21 45 43 101 49 124 l11 41 233 4
c256 4 281 9 345 71 56 53 76 102 76 182 0 99 -36 163 -129 221 -26 17 -57 20
-274 24 l-245 5 -36 95 c-44 116 -75 175 -140 261 -131 175 -314 300 -535 365
-76 22 -114 27 -245 30 -115 3 -173 0 -225 -12z m336 -500 c90 -27 150 -63
220 -133 103 -103 149 -212 149 -356 0 -191 -102 -362 -267 -447 -94 -49 -156
-61 -274 -56 -92 5 -106 8 -183 46 -183 91 -286 255 -286 458 0 138 45 249
141 350 100 103 215 153 360 153 51 1 107 -5 140 -15z"/>
<path d="M1462 2419 c-146 -25 -327 -106 -448 -200 -154 -119 -289 -314 -340
-493 l-18 -64 -231 -4 c-261 -4 -289 -10 -356 -85 -112 -124 -83 -294 66 -389
26 -17 57 -20 278 -24 l249 -5 22 -65 c130 -371 475 -639 861 -668 305 -23
570 69 787 276 114 109 202 245 254 392 l23 65 1173 5 c1127 5 1175 6 1203 24
49 30 85 68 108 111 30 56 30 164 0 220 -27 52 -77 99 -128 122 -38 17 -108
18 -1197 21 -1089 2 -1158 4 -1158 20 -1 34 -68 194 -116 274 -62 103 -203
249 -306 316 -89 57 -196 104 -306 134 -88 23 -330 33 -420 17z m301 -504 c90
-23 156 -62 228 -134 103 -103 149 -213 149 -355 0 -45 -6 -104 -14 -132 -89
-334 -489 -483 -775 -290 -213 143 -283 425 -164 661 34 65 130 165 195 200
117 64 258 82 381 50z"/>
</g>
</svg>
