<?xml version="1.0" standalone="no"?>
<!DOCTYPE svg PUBLIC "-//W3C//DTD SVG 20010904//EN"
 "http://www.w3.org/TR/2001/REC-SVG-20010904/DTD/svg10.dtd">
<svg version="1.0" xmlns="http://www.w3.org/2000/svg"
 width="512.000000pt" height="512.000000pt" viewBox="0 0 512.000000 512.000000"
 preserveAspectRatio="xMidYMid meet">

<g transform="translate(0.000000,512.000000) scale(0.100000,-0.100000)"
fill="#FFDEADFF" stroke="none">
<path d="M77 5098 c-39 -23 -77 -86 -77 -128 0 -39 37 -104 72 -125 31 -19 57
-20 353 -25 l319 -5 154 -540 c84 -297 263 -956 398 -1464 134 -509 247 -927
249 -929 3 -3 31 4 62 14 55 18 118 19 1442 22 1499 3 1437 5 1530 -49 19 -11
37 -16 41 -12 4 4 119 430 255 945 202 767 246 944 240 974 -8 48 -59 99 -110
113 -28 8 -571 11 -1865 11 l-1825 0 -160 567 c-123 435 -166 574 -185 596
-46 56 -55 57 -472 57 -375 0 -384 -1 -421 -22z"/>
<path d="M1745 5106 c-37 -16 -70 -52 -84 -89 -7 -18 -11 -168 -11 -423 l0
-394 910 0 910 0 0 408 c0 391 -1 408 -20 440 -12 19 -38 41 -63 52 -40 19
-74 20 -827 19 -632 0 -791 -2 -815 -13z"/>
<path d="M3777 4514 c-4 -4 -7 -76 -7 -161 l0 -153 365 0 365 0 0 93 c0 108
-19 161 -71 198 -34 24 -35 24 -339 27 -168 2 -309 0 -313 -4z"/>
<path d="M1690 1606 c-160 -45 -294 -177 -335 -330 -27 -101 -18 -232 22 -318
18 -38 43 -83 57 -101 l26 -34 -24 -22 c-32 -30 -85 -131 -102 -195 -18 -65
-18 -177 0 -242 67 -254 333 -413 581 -348 245 63 399 292 365 537 -6 38 -15
77 -20 87 -6 10 -10 21 -10 24 0 3 378 6 841 6 l840 0 -7 -22 c-26 -81 -32
-198 -14 -275 17 -74 62 -155 122 -218 236 -253 652 -180 793 139 102 230 0
509 -227 620 -40 20 -97 41 -127 46 -34 6 -535 10 -1365 10 -855 0 -1324 4
-1348 10 -41 12 -104 75 -114 115 -11 44 2 121 25 154 13 17 40 40 61 51 38
20 64 20 1342 20 854 0 1316 4 1340 10 48 14 94 67 103 120 9 55 -25 125 -75
151 -33 18 -84 19 -1370 18 -1037 -1 -1345 -4 -1380 -13z"/>
</g>
</svg>
